<svg xmlns="http://www.w3.org/2000/svg" width="13" height="16" viewBox="0 0 13 16"><g><g><path fill="#fff" d="M12.071 15.348c-.275.408-.734.65-1.227.65H2.122a1.48 1.48 0 0 1-1.228-.65 1.462 1.462 0 0 1-.142-1.375L3.81 5.698v-2.44c-.58-.201-.995-.748-.995-1.39v-.397C2.816.66 3.48 0 4.296 0H8.67c.816 0 1.48.659 1.48 1.47v.398c0 .642-.417 1.189-.995 1.389v2.44l3.065 8.29c.18.438.127.952-.149 1.36zM4.612 12.61a.502.502 0 1 0 0-1.002.502.502 0 1 0 0 1.002zm1.876.801c0 .479.389.867.871.867a.87.87 0 0 0 .871-.867.869.869 0 0 0-.871-.865.868.868 0 0 0-.871.865zm.758-2.14c.346 0 .627-.279.627-.623a.627.627 0 0 0-1.256 0c0 .344.282.624.63.624zM3.648 8.959h.045S8.363 8.882 9 8.222c.012-.012.022-.02.034-.03L8.176 5.87V2.366h.49a.5.5 0 0 0 .505-.497V1.47A.5.5 0 0 0 8.67.973H4.295a.5.5 0 0 0-.5.498v.398a.5.5 0 0 0 .5.497h.49l.004.487v3.018zM5.46 7.066a.68.68 0 0 1 1.363 0 .68.68 0 0 1-1.363 0z"/></g></g></svg>