<svg xmlns="http://www.w3.org/2000/svg" width="16" height="17" viewBox="0 0 16 17"><g><g><path fill="#fff" d="M16 15.237c0 .647-.608.788-2.7.936-1.418.1-3.3.156-5.3.156-2.001 0-3.884-.056-5.302-.156C.607 16.025 0 15.884 0 15.237s.608-.788 2.7-.936c.6-.042 1.288-.076 2.03-.101-1.484-1.29-2.459-3.427-2.459-5.845 0-.312.25-.565.559-.565h10.34c.31 0 .559.253.559.565 0 .299-.02.591-.048.88a1.595 1.595 0 0 1 1.758.724c.223.37.29.805.19 1.227a1.612 1.612 0 0 1-1.558 1.24 1.584 1.584 0 0 1-1.132-.476 6.856 6.856 0 0 1-1.671 2.25c.743.025 1.432.059 2.033.101 2.091.148 2.7.289 2.7.936zm-2.77-3.986c.012.015.029.026.04.043a.929.929 0 0 0 1.284.316.947.947 0 0 0 .312-1.299.93.93 0 0 0-1.285-.316c-.004.004-.009.003-.013.006a8.376 8.376 0 0 1-.339 1.25zM8 14.354c2.396 0 4.371-2.39 4.59-5.434H3.409c.22 3.044 2.195 5.434 4.591 5.434zM6.018 5.978c-.279-.583-.075-1.414.606-2.47.053-.081.101-.159.146-.234l.022-.036c.589-.992.534-1.425.483-1.565-.034-.095-.095-.125-.097-.126-.218-.064-.354-.317-.283-.557a.453.453 0 0 1 .557-.305c.047.014.475.153.665.676.211.582.019 1.379-.572 2.369-.556 1.04-.128 2.287-.123 2.3A.454.454 0 0 1 7 6.637l-.038-.002c-.247-.023-.72-.187-.944-.657zm2.625.254c-.197-.413-.073-.957.382-1.661a5.62 5.62 0 0 0 .078-.125l.026-.043c.35-.59.29-.805.281-.827.001 0 .02.01.046.016a.426.426 0 0 1 .24-.817.81.81 0 0 1 .505.506c.148.408.029.926-.363 1.583-.306.57-.066 1.279-.064 1.286a.427.427 0 0 1-.396.57h-.031a.883.883 0 0 1-.704-.488z"/></g></g></svg>