<svg width="24" height="18" viewBox="0 0 24 18" fill="none" xmlns="http://www.w3.org/2000/svg">
<g opacity="0.6">
<path d="M0.969906 17.0411C1.61653 17.6803 2.39662 18 3.31045 18H19.8621C20.776 18 21.5562 17.6803 22.2025 17.0411C22.8488 16.4021 23.1721 15.6307 23.1721 14.7273H0C0.000181164 15.6307 0.323468 16.4021 0.969906 17.0411Z" fill="url(#paint0_linear)"/>
<path d="M0.969906 17.0411C1.61653 17.6803 2.39662 18 3.31045 18H19.8621C20.776 18 21.5562 17.6803 22.2025 17.0411C22.8488 16.4021 23.1721 15.6307 23.1721 14.7273H0C0.000181164 15.6307 0.323468 16.4021 0.969906 17.0411Z" fill="#31456A"/>
<path d="M6.20717 13.0909H15.3104C16.1034 13.0909 16.7844 12.8097 17.3535 12.2472C17.9224 11.6847 18.2069 11.0113 18.2069 10.2273V9.81831H19.0343C20.4051 9.81831 21.5756 9.33902 22.5453 8.38013C23.5148 7.42128 24 6.26439 24 4.90931C24 3.55406 23.5148 2.39698 22.5453 1.43827C21.5756 0.479558 20.4051 0 19.0343 0H4.13814C3.91408 0 3.72015 0.0811353 3.55629 0.242869C3.39251 0.404826 3.31063 0.596694 3.31063 0.818248V10.2272C3.31063 11.0113 3.59506 11.6846 4.16405 12.2471C4.73304 12.8097 5.41408 13.0909 6.20717 13.0909ZM18.2069 2.45479H19.0346C19.7243 2.45479 20.3105 2.69345 20.7931 3.17063C21.2757 3.64795 21.5172 4.22741 21.5172 4.90936C21.5172 5.59095 21.2757 6.17054 20.7931 6.64803C20.3105 7.12522 19.7243 7.36392 19.0346 7.36392H18.2069V2.45479Z" fill="url(#paint1_linear)"/>
<path d="M6.20717 13.0909H15.3104C16.1034 13.0909 16.7844 12.8097 17.3535 12.2472C17.9224 11.6847 18.2069 11.0113 18.2069 10.2273V9.81831H19.0343C20.4051 9.81831 21.5756 9.33902 22.5453 8.38013C23.5148 7.42128 24 6.26439 24 4.90931C24 3.55406 23.5148 2.39698 22.5453 1.43827C21.5756 0.479558 20.4051 0 19.0343 0H4.13814C3.91408 0 3.72015 0.0811353 3.55629 0.242869C3.39251 0.404826 3.31063 0.596694 3.31063 0.818248V10.2272C3.31063 11.0113 3.59506 11.6846 4.16405 12.2471C4.73304 12.8097 5.41408 13.0909 6.20717 13.0909ZM18.2069 2.45479H19.0346C19.7243 2.45479 20.3105 2.69345 20.7931 3.17063C21.2757 3.64795 21.5172 4.22741 21.5172 4.90936C21.5172 5.59095 21.2757 6.17054 20.7931 6.64803C20.3105 7.12522 19.7243 7.36392 19.0346 7.36392H18.2069V2.45479Z" fill="#31456A"/>
</g>
<defs>
<linearGradient id="paint0_linear" x1="34.9823" y1="21.375" x2="9.68218" y2="-0.271203" gradientUnits="userSpaceOnUse">
<stop offset="0.156924" stop-color="#DEE9F3"/>
<stop offset="1" stop-color="#5F83AD"/>
</linearGradient>
<linearGradient id="paint1_linear" x1="34.9823" y1="21.375" x2="9.68218" y2="-0.271203" gradientUnits="userSpaceOnUse">
<stop offset="0.156924" stop-color="#DEE9F3"/>
<stop offset="1" stop-color="#5F83AD"/>
</linearGradient>
</defs>
</svg>
