<svg width="76" height="76" viewBox="0 0 76 76" fill="none" xmlns="http://www.w3.org/2000/svg">
<g filter="url(#filter0_di)">
<rect x="18" y="14" width="40" height="40" rx="20" fill="#E51A1A"/>
<rect x="17" y="13" width="42" height="42" rx="21" stroke="#363636" stroke-opacity="0.1" stroke-width="2"/>
<rect x="17" y="13" width="42" height="42" rx="21" stroke="url(#paint0_linear)" stroke-width="2"/>
</g>
<g opacity="0.5" filter="url(#filter1_f)">
<path d="M38.8263 33.9999C38.8263 44.195 37.9998 52.4598 37.9998 52.4598C37.9998 52.4598 37.1733 44.195 37.1733 33.9999C37.1733 23.8048 37.9998 15.54 37.9998 15.54C37.9998 15.54 38.8263 23.8048 38.8263 33.9999Z" fill="#FFA14A"/>
<path opacity="0.9" d="M41.8985 34C41.8985 43.9516 41.1741 52.019 41.1741 52.019C41.1741 52.019 40.4497 43.9516 40.4497 34C40.4497 24.0483 41.1741 15.981 41.1741 15.981C41.1741 15.981 41.8985 24.0483 41.8985 34Z" fill="#FFA14A"/>
<path opacity="0.85" d="M43.5942 34C43.5942 43.2124 44.2459 50.6805 44.2459 50.6805C44.2459 50.6805 44.8977 43.2124 44.8977 34C44.8977 24.7877 44.2459 17.3196 44.2459 17.3196C44.2459 17.3196 43.5942 24.7877 43.5942 34Z" fill="#FFA14A"/>
<path opacity="0.8" d="M46.5208 33.4525C46.5208 41.7287 47.084 48.4379 47.084 48.4379C47.084 48.4379 47.6472 41.7287 47.6472 33.4525C47.6472 25.1762 47.084 18.467 47.084 18.467C47.084 18.467 46.5208 25.1762 46.5208 33.4525Z" fill="#FFA14A"/>
<path opacity="0.7" d="M49.2702 33.4524C49.2702 40.1882 49.7135 45.6486 49.7135 45.6486C49.7135 45.6486 50.1567 40.1882 50.1567 33.4524C50.1567 26.7166 49.7135 21.2561 49.7135 21.2561C49.7135 21.2561 49.2702 26.7166 49.2702 33.4524Z" fill="#FFA14A"/>
<path opacity="0.5" d="M51.7799 33.4525C51.7799 37.8406 52.0993 41.3979 52.0993 41.3979C52.0993 41.3979 52.4187 37.8406 52.4187 33.4525C52.4187 29.0644 52.0993 25.5071 52.0993 25.5071C52.0993 25.5071 51.7799 29.0644 51.7799 33.4525Z" fill="#FFA14A"/>
<path opacity="0.4" d="M54.0418 33.4525C54.0418 36.37 54.1875 38.7351 54.1875 38.7351C54.1875 38.7351 54.3333 36.37 54.3333 33.4525C54.3333 30.535 54.1875 28.1699 54.1875 28.1699C54.1875 28.1699 54.0418 30.535 54.0418 33.4525Z" fill="#FFA14A"/>
<path opacity="0.9" d="M34.1017 34C34.1017 43.9516 34.8261 52.019 34.8261 52.019C34.8261 52.019 35.5505 43.9516 35.5505 34C35.5505 24.0483 34.8261 15.981 34.8261 15.981C34.8261 15.981 34.1017 24.0483 34.1017 34Z" fill="#FFA14A"/>
<path opacity="0.85" d="M32.4061 34C32.4061 43.2124 31.7543 50.6805 31.7543 50.6805C31.7543 50.6805 31.1025 43.2124 31.1025 34C31.1025 24.7877 31.7543 17.3196 31.7543 17.3196C31.7543 17.3196 32.4061 24.7877 32.4061 34Z" fill="#FFA14A"/>
<path opacity="0.8" d="M29.4795 33.4525C29.4795 41.7287 28.9163 48.4379 28.9163 48.4379C28.9163 48.4379 28.353 41.7287 28.353 33.4525C28.353 25.1762 28.9163 18.467 28.9163 18.467C28.9163 18.467 29.4795 25.1762 29.4795 33.4525Z" fill="#FFA14A"/>
<path opacity="0.7" d="M26.73 33.4524C26.73 40.1882 26.2868 45.6486 26.2868 45.6486C26.2868 45.6486 25.8435 40.1882 25.8435 33.4524C25.8435 26.7166 26.2868 21.2561 26.2868 21.2561C26.2868 21.2561 26.73 26.7166 26.73 33.4524Z" fill="#FFA14A"/>
<path opacity="0.5" d="M24.2204 33.4525C24.2204 37.8406 23.901 41.3979 23.901 41.3979C23.901 41.3979 23.5815 37.8406 23.5815 33.4525C23.5815 29.0644 23.901 25.5071 23.901 25.5071C23.901 25.5071 24.2204 29.0644 24.2204 33.4525Z" fill="#FFA14A"/>
<path opacity="0.4" d="M21.9585 33.4525C21.9585 36.37 21.8127 38.7351 21.8127 38.7351C21.8127 38.7351 21.667 36.37 21.667 33.4525C21.667 30.535 21.8127 28.1699 21.8127 28.1699C21.8127 28.1699 21.9585 30.535 21.9585 33.4525Z" fill="#FFA14A"/>
</g>
<rect x="18.5" y="14.5" width="39" height="39" rx="19.5" stroke="#903213"/>
<defs>
<filter id="filter0_di" x="0" y="0" width="76" height="76" filterUnits="userSpaceOnUse" color-interpolation-filters="sRGB">
<feFlood flood-opacity="0" result="BackgroundImageFix"/>
<feColorMatrix in="SourceAlpha" type="matrix" values="0 0 0 0 0 0 0 0 0 0 0 0 0 0 0 0 0 0 127 0"/>
<feOffset dy="4"/>
<feGaussianBlur stdDeviation="8"/>
<feColorMatrix type="matrix" values="0 0 0 0 1 0 0 0 0 0.116476 0 0 0 0 0.108333 0 0 0 0.5 0"/>
<feBlend mode="hard-light" in2="BackgroundImageFix" result="effect1_dropShadow"/>
<feBlend mode="normal" in="SourceGraphic" in2="effect1_dropShadow" result="shape"/>
<feColorMatrix in="SourceAlpha" type="matrix" values="0 0 0 0 0 0 0 0 0 0 0 0 0 0 0 0 0 0 127 0" result="hardAlpha"/>
<feOffset dx="-2"/>
<feGaussianBlur stdDeviation="1"/>
<feComposite in2="hardAlpha" operator="arithmetic" k2="-1" k3="1"/>
<feColorMatrix type="matrix" values="0 0 0 0 0.375 0 0 0 0 0.0688776 0 0 0 0 0 0 0 0 0.1 0"/>
<feBlend mode="normal" in2="shape" result="effect2_innerShadow"/>
</filter>
<filter id="filter1_f" x="20.667" y="14.54" width="34.6662" height="38.9198" filterUnits="userSpaceOnUse" color-interpolation-filters="sRGB">
<feFlood flood-opacity="0" result="BackgroundImageFix"/>
<feBlend mode="normal" in="SourceGraphic" in2="BackgroundImageFix" result="shape"/>
<feGaussianBlur stdDeviation="0.5" result="effect1_foregroundBlur"/>
</filter>
<linearGradient id="paint0_linear" x1="38" y1="14" x2="38" y2="54" gradientUnits="userSpaceOnUse">
<stop stop-color="white"/>
<stop offset="1" stop-color="white" stop-opacity="0"/>
</linearGradient>
</defs>
</svg>
