<svg width="130" height="260" viewBox="0 0 130 260" fill="none" xmlns="http://www.w3.org/2000/svg">
<g filter="url(#filter0_ii)">
<path d="M0.934727 16.009C1.03118 8.31239 1.0794 4.46408 3.80941 2.1101C6.5394 -0.243872 10.0537 0.233881 17.0822 1.18942C44.9476 4.97771 71.0042 17.6978 91.2129 37.6614C115.236 61.3936 129.125 93.5143 129.96 127.273C130.795 161.032 118.511 193.8 95.6907 218.691C76.4937 239.629 51.0979 253.622 23.4539 258.783C16.4812 260.085 12.9948 260.736 10.1518 258.52C7.30872 256.304 7.0703 252.462 6.59344 244.78L3.65962 197.514C3.23948 190.746 3.02943 187.361 4.42701 185.166C5.8246 182.971 9.95807 181.345 18.225 178.092C25.3937 175.271 31.8982 170.842 37.1974 165.062C46.1409 155.307 50.9549 142.465 50.6276 129.235C50.3004 116.005 44.8574 103.417 35.4425 94.1163C29.864 88.6055 23.1485 84.5031 15.8491 82.0403C7.43148 79.2002 3.22266 77.7801 1.71827 75.6569C0.213859 73.5336 0.256355 70.1431 0.34133 63.362L0.934727 16.009Z" fill="#E3EDF7"/>
</g>
<defs>
<filter id="filter0_ii" x="-2.69263" y="-2.59692" width="135.693" height="265.572" filterUnits="userSpaceOnUse" color-interpolation-filters="sRGB">
<feFlood flood-opacity="0" result="BackgroundImageFix"/>
<feBlend mode="normal" in="SourceGraphic" in2="BackgroundImageFix" result="shape"/>
<feColorMatrix in="SourceAlpha" type="matrix" values="0 0 0 0 0 0 0 0 0 0 0 0 0 0 0 0 0 0 127 0" result="hardAlpha"/>
<feOffset dx="3" dy="3"/>
<feGaussianBlur stdDeviation="3.5"/>
<feComposite in2="hardAlpha" operator="arithmetic" k2="-1" k3="1"/>
<feColorMatrix type="matrix" values="0 0 0 0 0.534167 0 0 0 0 0.645967 0 0 0 0 0.749167 0 0 0 0.48 0"/>
<feBlend mode="normal" in2="shape" result="effect1_innerShadow"/>
<feColorMatrix in="SourceAlpha" type="matrix" values="0 0 0 0 0 0 0 0 0 0 0 0 0 0 0 0 0 0 127 0" result="hardAlpha"/>
<feOffset dx="-3" dy="-3"/>
<feGaussianBlur stdDeviation="3.5"/>
<feComposite in2="hardAlpha" operator="arithmetic" k2="-1" k3="1"/>
<feColorMatrix type="matrix" values="0 0 0 0 1 0 0 0 0 1 0 0 0 0 1 0 0 0 1 0"/>
<feBlend mode="normal" in2="effect1_innerShadow" result="effect2_innerShadow"/>
</filter>
</defs>
</svg>
