<svg width="102" height="106" viewBox="0 0 102 106" fill="none" xmlns="http://www.w3.org/2000/svg">
<g filter="url(#filter0_ii)">
<path d="M16.1916 102.879C8.50741 102.434 4.66534 102.212 2.43746 99.3777C0.20959 96.5438 0.846125 93.0549 2.11917 86.0773C4.98184 70.3871 10.7052 55.3084 19.0494 41.6103C27.3935 27.9122 38.1666 15.9095 50.7954 6.16835C56.4116 1.83628 59.2197 -0.329747 62.7598 0.349902C66.2999 1.02955 68.2601 4.34146 72.1806 10.9653L96.1329 51.4345C99.5907 57.2767 101.32 60.1977 101.071 62.7925C100.822 65.3874 97.8782 68.7067 91.9903 75.3453C89.9647 77.6292 88.1393 80.0966 86.54 82.722C84.9408 85.3473 83.5857 88.1012 82.4855 90.9489C79.2875 99.226 77.6885 103.365 75.4969 104.776C73.3053 106.187 69.9166 105.991 63.1392 105.598L16.1916 102.879Z" fill="#E3EDF7"/>
</g>
<defs>
<filter id="filter0_ii" x="-2.03711" y="-2.77295" width="106.132" height="111.658" filterUnits="userSpaceOnUse" color-interpolation-filters="sRGB">
<feFlood flood-opacity="0" result="BackgroundImageFix"/>
<feBlend mode="normal" in="SourceGraphic" in2="BackgroundImageFix" result="shape"/>
<feColorMatrix in="SourceAlpha" type="matrix" values="0 0 0 0 0 0 0 0 0 0 0 0 0 0 0 0 0 0 127 0" result="hardAlpha"/>
<feOffset dx="3" dy="3"/>
<feGaussianBlur stdDeviation="3.5"/>
<feComposite in2="hardAlpha" operator="arithmetic" k2="-1" k3="1"/>
<feColorMatrix type="matrix" values="0 0 0 0 0.534167 0 0 0 0 0.645967 0 0 0 0 0.749167 0 0 0 0.48 0"/>
<feBlend mode="normal" in2="shape" result="effect1_innerShadow"/>
<feColorMatrix in="SourceAlpha" type="matrix" values="0 0 0 0 0 0 0 0 0 0 0 0 0 0 0 0 0 0 127 0" result="hardAlpha"/>
<feOffset dx="-3" dy="-3"/>
<feGaussianBlur stdDeviation="3.5"/>
<feComposite in2="hardAlpha" operator="arithmetic" k2="-1" k3="1"/>
<feColorMatrix type="matrix" values="0 0 0 0 1 0 0 0 0 1 0 0 0 0 1 0 0 0 1 0"/>
<feBlend mode="normal" in2="effect1_innerShadow" result="effect2_innerShadow"/>
</filter>
</defs>
</svg>
