<svg width="55" height="83" viewBox="0 0 55 83" fill="none" xmlns="http://www.w3.org/2000/svg">
<g filter="url(#filter0_ii)">
<path d="M5.1954 28.6448C1.67932 21.7978 -0.0787056 18.3743 1.23256 15.0165C2.54382 11.6586 5.87303 10.4366 12.5315 7.9925C20.175 5.18684 28.0645 3.1026 36.0964 1.76718C43.0932 0.603854 46.5916 0.0221926 49.3901 2.2943C52.1887 4.56641 52.3509 8.4115 52.6752 16.1017L54.8637 67.9923C54.9907 71.0039 55.0542 72.5097 54.8204 73.5459C54.2469 76.088 53.2662 77.4186 51.0077 78.7187C50.087 79.2487 48.1781 79.753 44.3602 80.7616C40.5424 81.7702 38.6334 82.2745 37.5711 82.2683C34.9652 82.2534 33.4552 81.5808 31.701 79.6536C30.9859 78.868 30.2975 77.5273 28.9205 74.8459L5.1954 28.6448Z" fill="#E3EDF7"/>
</g>
<defs>
<filter id="filter0_ii" x="-2.20142" y="-2.25757" width="60.1788" height="87.526" filterUnits="userSpaceOnUse" color-interpolation-filters="sRGB">
<feFlood flood-opacity="0" result="BackgroundImageFix"/>
<feBlend mode="normal" in="SourceGraphic" in2="BackgroundImageFix" result="shape"/>
<feColorMatrix in="SourceAlpha" type="matrix" values="0 0 0 0 0 0 0 0 0 0 0 0 0 0 0 0 0 0 127 0" result="hardAlpha"/>
<feOffset dx="3" dy="3"/>
<feGaussianBlur stdDeviation="3.5"/>
<feComposite in2="hardAlpha" operator="arithmetic" k2="-1" k3="1"/>
<feColorMatrix type="matrix" values="0 0 0 0 0.534167 0 0 0 0 0.645967 0 0 0 0 0.749167 0 0 0 0.48 0"/>
<feBlend mode="normal" in2="shape" result="effect1_innerShadow"/>
<feColorMatrix in="SourceAlpha" type="matrix" values="0 0 0 0 0 0 0 0 0 0 0 0 0 0 0 0 0 0 127 0" result="hardAlpha"/>
<feOffset dx="-3" dy="-3"/>
<feGaussianBlur stdDeviation="3.5"/>
<feComposite in2="hardAlpha" operator="arithmetic" k2="-1" k3="1"/>
<feColorMatrix type="matrix" values="0 0 0 0 1 0 0 0 0 1 0 0 0 0 1 0 0 0 1 0"/>
<feBlend mode="normal" in2="effect1_innerShadow" result="effect2_innerShadow"/>
</filter>
</defs>
</svg>
