<svg width="197" height="199" viewBox="0 0 197 199" fill="none" xmlns="http://www.w3.org/2000/svg">
<g filter="url(#filter0_dd)">
<path d="M159.5 138C159.5 145.697 159.5 149.546 156.8 151.934C154.099 154.322 150.58 153.888 143.54 153.02C131.886 151.584 120.454 148.579 109.56 144.066C93.7268 137.508 79.3406 127.895 67.2226 115.777C55.1045 103.659 45.4919 89.2732 38.9337 73.4402C34.4214 62.5464 31.4157 51.1145 29.9796 39.46C29.1122 32.4205 28.6784 28.9007 31.0665 26.2003C33.4545 23.5 37.303 23.5 45 23.5L91.3 23.5C98.1034 23.5 101.505 23.5 103.616 25.0459C105.727 26.5918 107.062 30.8114 109.733 39.2507C110.185 40.6783 110.699 42.0881 111.273 43.4761C113.897 49.8093 117.742 55.5638 122.589 60.411C127.436 65.2582 133.191 69.1032 139.524 71.7265C140.912 72.3014 142.322 72.8152 143.749 73.267C152.189 75.938 156.408 77.2734 157.954 79.3841C159.5 81.4949 159.5 84.8966 159.5 91.7L159.5 138Z" fill="url(#paint0_linear)"/>
<path d="M157.131 152.308C158.6 151.009 159.309 149.323 159.657 147.033C160 144.773 160 141.855 160 138.045L160 138L160 91.7L160 91.6704C160 88.2937 160 85.7225 159.804 83.7334C159.608 81.7361 159.209 80.2514 158.357 79.0887C157.495 77.9107 155.934 77.0065 153.624 76.0722C151.303 75.1333 148.123 74.127 143.924 72.7978L143.9 72.7903C142.486 72.3428 141.09 71.834 139.715 71.2646C133.443 68.6664 127.743 64.8582 122.943 60.0574C118.142 55.2566 114.334 49.5573 111.735 43.2847C111.166 41.9101 110.657 40.5138 110.21 39.0999L110.202 39.0759C108.873 34.8764 107.867 31.6969 106.928 29.3758C105.994 27.066 105.089 25.5053 103.911 24.6425C102.749 23.7909 101.264 23.3921 99.2666 23.1956C97.2775 23 94.7063 23 91.3296 23L91.3 23L45 23L44.9554 23C41.1446 23 38.2274 23 35.9673 23.3432C33.6771 23.691 31.9908 24.4004 30.6919 25.8691C29.3995 27.3306 28.8873 29.0092 28.8026 31.1835C28.7194 33.3215 29.0488 35.9944 29.4777 39.4751L29.4834 39.5212C30.925 51.2203 33.9421 62.696 38.4718 73.6315C45.0551 89.5252 54.7045 103.967 66.869 116.131C79.0335 128.295 93.4748 137.945 109.368 144.528C120.304 149.058 131.78 152.075 143.479 153.517L143.525 153.522C147.006 153.951 149.678 154.281 151.816 154.197C153.991 154.113 155.669 153.601 157.131 152.308Z" stroke="url(#paint1_linear)"/>
</g>
<defs>
<filter id="filter0_dd" x="0.289795" y="0.5" width="196.21" height="198.21" filterUnits="userSpaceOnUse" color-interpolation-filters="sRGB">
<feFlood flood-opacity="0" result="BackgroundImageFix"/>
<feColorMatrix in="SourceAlpha" type="matrix" values="0 0 0 0 0 0 0 0 0 0 0 0 0 0 0 0 0 0 127 0"/>
<feOffset dx="4" dy="12"/>
<feGaussianBlur stdDeviation="16"/>
<feColorMatrix type="matrix" values="0 0 0 0 0.958333 0 0 0 0 0.400316 0 0 0 0 0 0 0 0 0.42 0"/>
<feBlend mode="normal" in2="BackgroundImageFix" result="effect1_dropShadow"/>
<feColorMatrix in="SourceAlpha" type="matrix" values="0 0 0 0 0 0 0 0 0 0 0 0 0 0 0 0 0 0 127 0"/>
<feOffset dx="-6" dy="-6"/>
<feGaussianBlur stdDeviation="8"/>
<feColorMatrix type="matrix" values="0 0 0 0 1 0 0 0 0 1 0 0 0 0 1 0 0 0 0.6 0"/>
<feBlend mode="normal" in2="effect1_dropShadow" result="effect2_dropShadow"/>
<feBlend mode="normal" in="SourceGraphic" in2="effect2_dropShadow" result="shape"/>
</filter>
<linearGradient id="paint0_linear" x1="71.5" y1="12" x2="149.5" y2="216" gradientUnits="userSpaceOnUse">
<stop stop-color="#F8AC75"/>
<stop offset="1" stop-color="#E6660A"/>
</linearGradient>
<linearGradient id="paint1_linear" x1="46" y1="18.5" x2="52.9063" y2="154.664" gradientUnits="userSpaceOnUse">
<stop stop-color="white"/>
<stop offset="1" stop-color="#CD5B0A"/>
</linearGradient>
</defs>
</svg>
