<svg width="40" height="40" viewBox="0 0 40 40" fill="none" xmlns="http://www.w3.org/2000/svg">
<g filter="url(#filter0_dd)">
<path d="M28.4116 21.5685C28.1179 21.3444 27.9711 21.2323 27.8802 21.0993C27.8201 21.0113 27.7899 20.9503 27.7565 20.8493C27.7058 20.6963 27.7058 20.4642 27.7058 20C27.7058 19.5366 27.7058 19.3049 27.7563 19.1522C27.7899 19.0502 27.8204 18.9887 27.8812 18.9001C27.9721 18.7675 28.1189 18.6558 28.4123 18.4324L29.8077 17.37C30.003 17.22 30.0595 16.95 29.931 16.73L27.8754 13.265C27.747 13.05 27.4797 12.96 27.2485 13.05L25.6076 13.6944C25.2323 13.8418 25.0446 13.9155 24.87 13.9205C24.7934 13.9226 24.7441 13.9191 24.6686 13.9058C24.4966 13.8756 24.2877 13.7561 23.87 13.5172C23.4294 13.2652 23.2091 13.1392 23.0949 13.0037C23.0443 12.9436 23.0169 12.9035 22.9796 12.8343C22.8954 12.6784 22.8656 12.4739 22.8062 12.065L22.5669 10.42C22.5207 10.185 22.31 10 22.053 10H17.9419C17.6849 10 17.4742 10.185 17.4331 10.42L17.1934 12.0684C17.1344 12.474 17.1049 12.6769 17.0214 12.8321C16.9832 12.9031 16.9548 12.9447 16.9026 13.0061C16.7885 13.1404 16.57 13.2648 16.1331 13.5135C15.7108 13.7539 15.4997 13.8741 15.3295 13.9042C15.2515 13.918 15.2024 13.9216 15.1232 13.919C14.9505 13.9135 14.7633 13.84 14.3889 13.693L12.7515 13.05C12.5203 12.965 12.253 13.05 12.1246 13.265L10.069 16.73C9.94051 16.945 9.99704 17.215 10.1923 17.37L11.5832 18.4315C11.8769 18.6556 12.0238 18.7677 12.1147 18.9007C12.1748 18.9887 12.2049 19.0497 12.2384 19.1507C12.289 19.3037 12.289 19.5358 12.289 20C12.289 20.4642 12.289 20.6963 12.2384 20.8493C12.2049 20.9503 12.1748 21.0113 12.1147 21.0993C12.0238 21.2323 11.8769 21.3444 11.5832 21.5685L10.1923 22.63C9.99704 22.78 9.94051 23.05 10.069 23.27L12.1246 26.735C12.253 26.95 12.5203 27.04 12.7515 26.95L14.3924 26.3056C14.7677 26.1582 14.9554 26.0845 15.13 26.0795C15.2066 26.0774 15.2559 26.0809 15.3314 26.0942C15.5034 26.1244 15.7123 26.2439 16.13 26.4828C16.5706 26.7348 16.7909 26.8608 16.9051 26.9963C16.9557 27.0564 16.9831 27.0965 17.0204 27.1657C17.1046 27.3216 17.1344 27.5261 17.1938 27.935L17.4331 29.58C17.4742 29.815 17.6849 30 17.9419 30H22.053C22.31 30 22.5207 29.815 22.5618 29.58L22.8015 27.9317C22.8605 27.526 22.89 27.3231 22.9734 27.1679C23.0116 27.0969 23.04 27.0553 23.0922 26.9939C23.2064 26.8596 23.4248 26.7352 23.8618 26.4865C24.2841 26.2461 24.4952 26.1259 24.6654 26.0958C24.7434 26.082 24.7925 26.0784 24.8716 26.0809C25.0444 26.0865 25.2316 26.16 25.6059 26.307L27.2433 26.95C27.4746 27.035 27.7418 26.95 27.8703 26.735L29.9259 23.27C30.0543 23.055 29.9978 22.785 29.8025 22.63L28.4116 21.5685ZM19.9974 23.5C18.0087 23.5 16.4002 21.935 16.4002 20C16.4002 18.065 18.0087 16.5 19.9974 16.5C21.9862 16.5 23.5947 18.065 23.5947 20C23.5947 21.935 21.9862 23.5 19.9974 23.5Z" fill="url(#paint0_linear)"/>
<path d="M30.1106 17.7678L30.1123 17.7665C30.5061 17.464 30.6189 16.9164 30.3628 16.4779L30.361 16.4749L28.3055 13.0099L28.3046 13.0085C28.0502 12.5827 27.5243 12.4061 27.0671 12.584L27.0657 12.5846L25.4249 13.229C25.0103 13.3918 24.9212 13.4188 24.8558 13.4207C24.8129 13.4219 24.7974 13.4208 24.7551 13.4133C24.7421 13.411 24.6991 13.4001 24.5866 13.3433C24.4752 13.2871 24.3319 13.2053 24.1182 13.0832C23.8933 12.9545 23.7413 12.8674 23.6303 12.7961C23.5171 12.7233 23.4848 12.6905 23.4772 12.6814C23.4486 12.6475 23.4406 12.6357 23.4195 12.5967C23.388 12.5384 23.3667 12.4449 23.3009 11.993L23.0617 10.348L23.0599 10.3357L23.0575 10.3234C22.9664 9.86037 22.5553 9.5 22.053 9.5H17.9419C17.4417 9.5 17.0235 9.85991 16.9406 10.3338L16.9393 10.3409L16.9383 10.348L16.6986 11.9964C16.6334 12.4446 16.6123 12.5372 16.581 12.5953C16.5595 12.6353 16.551 12.6477 16.5216 12.6823C16.5139 12.6915 16.4817 12.7239 16.3696 12.7957C16.2595 12.8661 16.1089 12.952 15.8857 13.079C15.6699 13.2018 15.5246 13.2844 15.4119 13.3411C15.2975 13.3988 15.2544 13.4098 15.2423 13.4119C15.1984 13.4197 15.1838 13.4207 15.1392 13.4193C15.0745 13.4172 14.9852 13.39 14.5717 13.2276L12.9343 12.5846L12.9343 12.5845L12.924 12.5807C12.4805 12.4177 11.9543 12.5752 11.6954 13.0085L11.6954 13.0085L11.6945 13.0099L9.63978 16.4735C9.63962 16.4738 9.63945 16.4741 9.63929 16.4743C9.37635 16.9153 9.50025 17.459 9.88147 17.7616L9.88142 17.7617L9.88899 17.7675L11.2799 18.829C11.6041 19.0764 11.6677 19.1328 11.7019 19.1828C11.7356 19.2322 11.7449 19.2511 11.7637 19.3078C11.767 19.3178 11.7775 19.3588 11.7832 19.4821C11.7889 19.6028 11.789 19.763 11.789 20C11.789 20.237 11.7889 20.3972 11.7832 20.5179C11.7775 20.6412 11.767 20.6822 11.7637 20.6922C11.7449 20.7489 11.7356 20.7678 11.7019 20.8172C11.6677 20.8672 11.6041 20.9236 11.2799 21.171L9.88899 22.2325L9.88774 22.2335C9.49387 22.536 9.38111 23.0836 9.63722 23.5221L9.63721 23.5221L9.63896 23.5251L11.6945 26.9901L11.6954 26.9915C11.9498 27.4173 12.4757 27.5939 12.9329 27.416L12.9343 27.4154L14.5751 26.771C14.9897 26.6082 15.0788 26.5812 15.1442 26.5793C15.1871 26.5781 15.2026 26.5792 15.2449 26.5867C15.2579 26.589 15.3009 26.5999 15.4134 26.6567C15.5248 26.7129 15.6681 26.7947 15.8818 26.9168C16.1067 27.0455 16.2587 27.1326 16.3697 27.2039C16.4829 27.2767 16.5152 27.3095 16.5228 27.3186L16.9051 26.9963L16.5228 27.3186C16.5514 27.3525 16.5594 27.3643 16.5805 27.4033C16.612 27.4617 16.6333 27.5551 16.6991 28.007L16.9383 29.652L16.9393 29.6591L16.9406 29.6662C17.0235 30.1401 17.4417 30.5 17.9419 30.5H22.053C22.5532 30.5 22.9714 30.1401 23.0543 29.6662L23.0555 29.6591L23.0566 29.652L23.2963 28.0036C23.3615 27.5554 23.3826 27.4628 23.4138 27.4047C23.4353 27.3647 23.4438 27.3523 23.4732 27.3177C23.481 27.3085 23.5131 27.2761 23.6253 27.2043C23.7354 27.1339 23.886 27.048 24.1091 26.921C24.3249 26.7982 24.4702 26.7156 24.583 26.6589C24.6974 26.6012 24.7405 26.5902 24.7526 26.5881C24.7965 26.5803 24.8111 26.5793 24.8557 26.5807C24.9204 26.5828 25.0096 26.61 25.4232 26.7724L27.0606 27.4154L27.0605 27.4155L27.0708 27.4193C27.5144 27.5823 28.0406 27.4248 28.2995 26.9915L28.3003 26.9901L30.3551 23.5265C30.3551 23.5264 30.3552 23.5263 30.3553 23.5262C30.6186 23.0851 30.4948 22.5411 30.1134 22.2384L30.1134 22.2383L30.1059 22.2325L28.715 21.171C28.3908 20.9236 28.3272 20.8672 28.293 20.8172C28.2593 20.7678 28.2499 20.7489 28.2312 20.6922C28.2278 20.6822 28.2174 20.6412 28.2116 20.5179C28.206 20.3972 28.2058 20.237 28.2058 20C28.2058 19.7634 28.206 19.6034 28.2116 19.4829C28.2174 19.3598 28.2278 19.3189 28.2311 19.309C28.25 19.2517 28.2594 19.2326 28.2935 19.1829C28.3277 19.1331 28.3913 19.0768 28.7152 18.8302L30.1106 17.7678ZM19.9974 23C18.2718 23 16.9002 21.646 16.9002 20C16.9002 18.354 18.2718 17 19.9974 17C21.7231 17 23.0947 18.354 23.0947 20C23.0947 21.646 21.7231 23 19.9974 23Z" stroke="url(#paint1_linear)"/>
</g>
<defs>
<filter id="filter0_dd" x="0.999268" y="2" width="38.0008" height="37" filterUnits="userSpaceOnUse" color-interpolation-filters="sRGB">
<feFlood flood-opacity="0" result="BackgroundImageFix"/>
<feColorMatrix in="SourceAlpha" type="matrix" values="0 0 0 0 0 0 0 0 0 0 0 0 0 0 0 0 0 0 127 0"/>
<feOffset dx="1" dy="1"/>
<feGaussianBlur stdDeviation="3.5"/>
<feColorMatrix type="matrix" values="0 0 0 0 0.0705882 0 0 0 0 0.239843 0 0 0 0 0.396078 0 0 0 0.26 0"/>
<feBlend mode="normal" in2="BackgroundImageFix" result="effect1_dropShadow"/>
<feColorMatrix in="SourceAlpha" type="matrix" values="0 0 0 0 0 0 0 0 0 0 0 0 0 0 0 0 0 0 127 0"/>
<feOffset dx="-2" dy="-1"/>
<feGaussianBlur stdDeviation="3"/>
<feColorMatrix type="matrix" values="0 0 0 0 1 0 0 0 0 1 0 0 0 0 1 0 0 0 0.1 0"/>
<feBlend mode="normal" in2="effect1_dropShadow" result="effect2_dropShadow"/>
<feBlend mode="normal" in="SourceGraphic" in2="effect2_dropShadow" result="shape"/>
</filter>
<linearGradient id="paint0_linear" x1="39.1519" y1="33.75" x2="12.65" y2="14.113" gradientUnits="userSpaceOnUse">
<stop offset="0.245118" stop-color="#DEE9F3"/>
<stop offset="1" stop-color="#5F83AD"/>
</linearGradient>
<linearGradient id="paint1_linear" x1="11.5343" y1="14.5833" x2="30.5058" y2="27.066" gradientUnits="userSpaceOnUse">
<stop offset="0.130987" stop-color="white"/>
<stop offset="1" stop-color="#5B80A3"/>
</linearGradient>
</defs>
</svg>
