<svg width="82" height="82" viewBox="0 0 82 82" fill="none" xmlns="http://www.w3.org/2000/svg">
<g opacity="0.2">
<path d="M27.9424 69.1918C27.5659 69.0452 27.2985 68.7951 27.14 68.4414C26.9816 68.0878 26.9742 67.7265 27.1179 67.3575C27.2617 66.9885 27.5115 66.7274 27.8674 66.5741C28.2233 66.4208 28.5895 66.4175 28.9659 66.5641L29.6536 66.832L30.1545 65.5461L30.926 65.8466L29.4016 69.7602L27.9424 69.1918ZM28.685 67.2853C28.521 67.2215 28.3632 67.2244 28.2115 67.2941C28.0584 67.3675 27.9492 67.4881 27.8839 67.6558C27.8171 67.8273 27.816 67.99 27.8805 68.1439C27.945 68.2978 28.0593 68.4067 28.2233 68.4706L28.911 68.7385L29.3727 67.5532L28.685 67.2853Z" fill="black"/>
<path d="M24.8748 62.5852L24.8432 64.2705L25.3821 64.5969L26.1374 63.3497L26.8456 63.7786L24.6701 67.3712L23.2331 66.501C22.9012 66.3001 22.6893 66.0128 22.5976 65.6392C22.5058 65.2657 22.5593 64.9147 22.7582 64.5862C22.8929 64.3638 23.0816 64.1951 23.3242 64.0802C23.5647 63.9687 23.8184 63.9282 24.0851 63.9588L24.1101 62.1221L24.8748 62.5852ZM24.3628 66.2803L25.0061 65.2179L24.2773 64.7766C24.1439 64.6958 23.9982 64.6777 23.8402 64.7223C23.6802 64.7704 23.5556 64.868 23.4665 65.0151C23.3774 65.1622 23.3497 65.3161 23.3833 65.4768C23.417 65.6374 23.5005 65.7582 23.634 65.839L24.3628 66.2803Z" fill="black"/>
<path d="M21.8368 60.9235L20.5105 59.7515L21.0349 59.158L22.9817 60.8783L20.2006 64.0256L18.2763 62.3251L18.8007 61.7316L20.1046 62.8838L20.6966 62.2139L19.5051 61.161L20.0216 60.5765L21.2131 61.6294L21.8368 60.9235Z" fill="black"/>
<path d="M19.4044 56.8885C19.6729 57.2063 19.8285 57.533 19.8713 57.8687C19.911 58.207 19.846 58.5237 19.6765 58.8188L18.9033 58.5452C19.1244 58.1437 19.08 57.7596 18.7702 57.393C18.6205 57.2158 18.4787 57.113 18.3448 57.0847C18.2109 57.0564 18.0951 57.0836 17.9974 57.1662C17.8843 57.2617 17.8398 57.3857 17.8639 57.5382C17.8849 57.6932 17.9685 57.9316 18.1146 58.2532C18.1932 58.433 18.2537 58.5913 18.2961 58.7283C18.3359 58.8622 18.3633 59.0093 18.3782 59.1695C18.3875 59.3292 18.3591 59.4815 18.293 59.6264C18.2269 59.7713 18.1205 59.9057 17.9738 60.0296C17.6836 60.2749 17.3664 60.3674 17.0223 60.3073C16.6726 60.2467 16.3752 60.0712 16.1299 59.781C15.9105 59.5213 15.7823 59.2394 15.7454 58.9354C15.7029 58.631 15.7482 58.3283 15.8813 58.0272L16.6376 58.2994C16.4711 58.6601 16.5065 58.981 16.744 59.2621C16.855 59.3934 16.9734 59.4715 17.099 59.4963C17.219 59.5205 17.3264 59.4927 17.4211 59.4126C17.5219 59.3274 17.5696 59.2165 17.564 59.0798C17.5529 58.9426 17.4833 58.7239 17.3552 58.4236C17.3032 58.3 17.2656 58.206 17.2427 58.1416C17.2141 58.0768 17.1819 57.9861 17.1463 57.8696C17.1051 57.7526 17.0804 57.6582 17.0722 57.5866C17.0614 57.5119 17.0562 57.422 17.0565 57.3171C17.0568 57.2121 17.0716 57.121 17.1008 57.044C17.1274 56.9639 17.1713 56.8797 17.2327 56.7911C17.2884 56.7022 17.3621 56.6189 17.4538 56.5415C17.7502 56.2911 18.0771 56.2008 18.4345 56.2705C18.7894 56.3373 19.1127 56.5433 19.4044 56.8885Z" fill="black"/>
<path d="M16.9311 52.8061C17.1384 53.1668 17.233 53.5161 17.2149 53.854C17.1934 54.1939 17.0728 54.4939 16.8531 54.7539L16.1414 54.3462C16.4308 53.9908 16.456 53.605 16.2168 53.1888C16.1012 52.9876 15.9801 52.8612 15.8535 52.8094C15.7269 52.7576 15.6081 52.7636 15.4971 52.8273C15.3687 52.9011 15.3028 53.0151 15.2992 53.1694C15.2921 53.3257 15.3316 53.5752 15.4178 53.9178C15.4629 54.1087 15.494 54.2753 15.5112 54.4177C15.5265 54.5566 15.5271 54.7061 15.5131 54.8664C15.4936 55.0252 15.4384 55.17 15.3474 55.3007C15.2564 55.4314 15.1277 55.5446 14.9612 55.6402C14.6317 55.8295 14.3031 55.8638 13.9754 55.743C13.6422 55.6208 13.3809 55.3949 13.1916 55.0654C13.0222 54.7706 12.9466 54.4704 12.9647 54.1647C12.9774 53.8576 13.0762 53.5678 13.2611 53.2955L13.9564 53.6987C13.7279 54.0237 13.7054 54.3458 13.8887 54.6649C13.9744 54.814 14.0768 54.912 14.196 54.9588C14.3097 55.0042 14.4204 54.996 14.5279 54.9342C14.6423 54.8685 14.7091 54.7679 14.7281 54.6324C14.7417 54.4954 14.7124 54.2677 14.6402 53.9494C14.6111 53.8185 14.591 53.7193 14.5799 53.6519C14.5634 53.5829 14.548 53.488 14.5338 53.3669C14.5142 53.2444 14.5068 53.1472 14.5116 53.0752C14.5144 52.9998 14.5253 52.9105 14.5444 52.8073C14.5635 52.704 14.5943 52.6171 14.6368 52.5466C14.6773 52.4725 14.7357 52.3975 14.8119 52.3214C14.8827 52.2438 14.9701 52.1752 15.0742 52.1154C15.4106 51.9221 15.7484 51.8918 16.0876 52.0244C16.4247 52.1536 16.7059 52.4142 16.9311 52.8061Z" fill="black"/>
<path d="M10.1181 45.2997L10.8881 45.1145L11.1532 46.2171L14.4668 45.4204L14.6603 46.2255L11.3468 47.0222L11.6105 48.1189L10.8404 48.304L10.1181 45.2997Z" fill="black"/>
<path d="M13.3843 39.6766C13.8411 40.0607 14.0972 40.5554 14.1525 41.1609C14.2079 41.7664 14.0457 42.2993 13.6661 42.7598C13.282 43.2166 12.7853 43.4729 12.1758 43.5286C11.5664 43.5843 11.0334 43.4222 10.5769 43.0421C10.1161 42.6585 9.85802 42.1639 9.80268 41.5584C9.74734 40.953 9.9115 40.4198 10.2951 39.959C10.6748 39.4985 11.1694 39.2404 11.7788 39.1847C12.3883 39.129 12.9234 39.293 13.3843 39.6766ZM13.0514 42.2315C13.2827 41.9493 13.3809 41.617 13.3459 41.2346C13.311 40.8522 13.1542 40.5432 12.8756 40.3076C12.593 40.0723 12.2525 39.9729 11.8542 40.0093C11.4559 40.0457 11.1391 40.2052 10.9038 40.4878C10.6685 40.7704 10.5684 41.1029 10.6033 41.4853C10.6383 41.8677 10.7971 42.1765 11.0796 42.4118C11.3622 42.647 11.7027 42.7464 12.101 42.71C12.4994 42.6736 12.8162 42.5141 13.0514 42.2315Z" fill="black"/>
<path d="M15.3765 33.1711C15.2803 33.5758 15.1099 33.8951 14.8652 34.1288C14.6167 34.3617 14.3233 34.4975 13.9852 34.5364L13.7461 33.7519C14.2004 33.6913 14.483 33.4275 14.594 32.9605C14.6476 32.7347 14.6461 32.5596 14.5893 32.4351C14.5326 32.3106 14.4419 32.2336 14.3174 32.204C14.1734 32.1698 14.0472 32.2077 13.9389 32.3176C13.8266 32.4266 13.6845 32.6354 13.5125 32.944C13.4146 33.1139 13.3231 33.2567 13.2381 33.3721C13.154 33.4837 13.052 33.5931 12.9319 33.7002C12.8089 33.8026 12.6695 33.8702 12.5137 33.903C12.3579 33.9359 12.1866 33.9301 11.9998 33.8858C11.6301 33.7979 11.3672 33.5977 11.2113 33.2852C11.0523 32.9678 11.0168 32.6243 11.1047 32.2546C11.1833 31.9238 11.3339 31.6533 11.5565 31.4431C11.7762 31.2281 12.0466 31.0847 12.3679 31.013L12.5981 31.7831C12.209 31.8633 11.9719 32.0825 11.8869 32.4405C11.8471 32.6078 11.8546 32.7494 11.9093 32.8652C11.961 32.9762 12.0472 33.046 12.1679 33.0746C12.2963 33.1052 12.4139 33.0776 12.5205 32.9919C12.6243 32.9015 12.7589 32.7156 12.9244 32.4342C12.9929 32.3189 13.0463 32.2329 13.0844 32.1762C13.1196 32.1147 13.1735 32.035 13.2461 31.9371C13.3157 31.8344 13.3769 31.7585 13.4297 31.7094C13.4834 31.6564 13.5526 31.5988 13.6372 31.5367C13.7219 31.4746 13.8039 31.4324 13.8832 31.4101C13.9634 31.384 14.0573 31.3693 14.165 31.3661C14.2697 31.3581 14.3804 31.3679 14.4971 31.3957C14.8746 31.4854 15.1415 31.6947 15.2976 32.0238C15.4547 32.3489 15.481 32.7313 15.3765 33.1711Z" fill="black"/>
<path d="M16.896 29.2005L12.5767 28.5954L12.9252 27.7983L16.1005 28.3091L13.5982 26.259L13.8819 25.6103L17.0884 26.0497L14.5573 24.0655L14.9058 23.2684L18.2829 26.0284L17.9056 26.8916L15.0484 26.5067L17.2734 28.3374L16.896 29.2005Z" fill="black"/>
<path d="M16.5807 21.8984L17.0863 21.2427L20.4123 23.8074L19.9067 24.4631L16.5807 21.8984Z" fill="black"/>
<path d="M20.7167 17.3675L21.288 17.916L20.5026 18.734L22.961 21.0943L22.3875 21.6916L19.9292 19.3313L19.148 20.145L18.5767 19.5964L20.7167 17.3675Z" fill="black"/>
<path d="M26.3758 18.5439C25.8763 18.9311 25.3351 19.085 24.7522 19.0056C24.1692 18.9261 23.689 18.6429 23.3116 18.1561C22.9317 17.6661 22.7771 17.1305 22.8478 16.5493C22.916 15.965 23.1999 15.4792 23.6994 15.0919C23.9997 14.8591 24.3314 14.7157 24.6946 14.6619C25.0585 14.6025 25.4047 14.6377 25.7332 14.7677L25.4226 15.5324C25.2253 15.4475 25.0188 15.4228 24.8034 15.4583C24.5855 15.4906 24.3817 15.5802 24.192 15.7273C23.8696 15.9773 23.6872 16.2807 23.6449 16.6374C23.6058 16.9917 23.7112 17.33 23.9612 17.6524C24.2087 17.9717 24.5089 18.1565 24.8618 18.2069C25.2178 18.2548 25.557 18.1538 25.8795 17.9038C26.0691 17.7567 26.208 17.5833 26.296 17.3834C26.3847 17.178 26.4122 16.9719 26.3785 16.7652L27.1964 16.6549C27.2405 17.0055 27.1912 17.3499 27.0486 17.6882C26.9035 18.0234 26.6793 18.3086 26.3758 18.5439Z" fill="black"/>
<path d="M29.9051 11.9726L30.6465 11.6178L32.4599 15.4061L31.7184 15.761L30.9672 14.1916L29.5601 14.8651L30.3113 16.4346L29.5645 16.792L27.7511 13.0037L28.498 12.6462L29.2181 14.1507L30.6252 13.4772L29.9051 11.9726Z" fill="black"/>
<path d="M36.3987 10.3885L37.2167 10.2604L37.8663 14.4099L37.0483 14.538L36.3987 10.3885Z" fill="black"/>
<path d="M42.0943 9.95941L42.9213 9.91918L43.1254 14.1142L42.4961 14.1448L40.5735 11.6673L40.6983 14.2323L39.8712 14.2725L39.6672 10.0775L40.2964 10.0469L42.2188 12.5184L42.0943 9.95941Z" fill="black"/>
<path d="M46.5724 14.8466C45.9457 14.7647 45.4553 14.4888 45.1012 14.019C44.7471 13.5492 44.6099 13.0088 44.6897 12.398C44.7701 11.7833 45.0414 11.2963 45.5039 10.9372C45.9668 10.5741 46.5116 10.4335 47.1383 10.5154C47.5151 10.5646 47.8505 10.6992 48.1445 10.9192C48.4429 11.1357 48.6617 11.4063 48.8008 11.7311L48.0392 12.0491C47.9604 11.8492 47.8326 11.6852 47.6557 11.5572C47.4793 11.4253 47.2721 11.3437 47.0341 11.3126C46.6296 11.2598 46.2858 11.3439 46.0027 11.5651C45.7236 11.7868 45.5577 12.1 45.5048 12.5045C45.4525 12.9051 45.5327 13.2484 45.7454 13.5344C45.9621 13.8209 46.2727 13.9906 46.6773 14.0434C46.9153 14.0745 47.1362 14.0509 47.3401 13.9727C47.5484 13.891 47.7141 13.7654 47.8371 13.5959L48.4914 14.0989C48.2735 14.3771 47.9943 14.5846 47.6537 14.7216C47.3136 14.8547 46.9531 14.8963 46.5724 14.8466Z" fill="black"/>
<path d="M53.6797 16.5857C53.1384 16.837 52.5818 16.8596 52.0098 16.6534C51.4378 16.4472 51.0236 16.0747 50.7672 15.5358C50.5158 14.9945 50.4939 14.436 50.7014 13.8603C50.909 13.2845 51.2815 12.8703 51.819 12.6176C52.3617 12.3625 52.919 12.338 53.491 12.5442C54.063 12.7504 54.4765 13.1248 54.7316 13.6674C54.9881 14.2063 55.0125 14.7636 54.805 15.3394C54.5975 15.9151 54.2224 16.3305 53.6797 16.5857ZM51.5059 15.2026C51.6637 15.5316 51.9232 15.7612 52.2845 15.8914C52.6457 16.0216 52.9921 16.0104 53.3235 15.8577C53.6562 15.7013 53.8904 15.4349 54.0261 15.0586C54.1617 14.6823 54.1513 14.3278 53.9949 13.995C53.8384 13.6623 53.5796 13.4308 53.2183 13.3006C52.8571 13.1704 52.5101 13.1835 52.1773 13.3399C51.8446 13.4963 51.6104 13.7627 51.4747 14.139C51.3391 14.5153 51.3495 14.8698 51.5059 15.2026Z" fill="black"/>
<path d="M61.0068 17.0583L58.7767 20.6173L58.0801 20.1808L59.5265 17.8726L57.4895 18.8973L57.4082 18.8464L57.4388 16.5714L55.9956 18.8746L55.2939 18.4349L57.5241 14.876L58.2461 15.3284L58.2135 17.6516L60.2849 16.6059L61.0068 17.0583Z" fill="black"/>
<path d="M60.9061 21.9958L62.1765 23.2283L61.625 23.7967L59.7603 21.9877L62.6848 18.9732L64.528 20.7613L63.9765 21.3298L62.7276 20.1182L62.1051 20.7599L63.2463 21.867L62.7032 22.4268L61.562 21.3197L60.9061 21.9958Z" fill="black"/>
<path d="M66.1888 29.9622C65.6094 29.8192 65.1612 29.4883 64.8443 28.9694C64.5275 28.4505 64.4378 27.9006 64.5753 27.3199C64.7183 26.7405 65.0509 26.2913 65.5732 25.9723C66.0955 25.6534 66.6454 25.5637 67.2227 25.7033C67.8055 25.8442 68.2554 26.1741 68.5723 26.693C68.8891 27.2119 68.9771 27.7627 68.8362 28.3456C68.6987 28.9263 68.3688 29.3762 67.8465 29.6951C67.3242 30.0141 66.7716 30.1031 66.1888 29.9622ZM65.3599 27.5227C65.277 27.878 65.3355 28.2195 65.5357 28.5472C65.7358 28.875 66.0128 29.0831 66.3668 29.1716C66.7242 29.258 67.0736 29.1969 67.415 28.9885C67.7564 28.78 67.9703 28.4971 68.0567 28.1397C68.1431 27.7823 68.0862 27.4397 67.8861 27.112C67.686 26.7842 67.4072 26.5772 67.0498 26.4908C66.6924 26.4044 66.343 26.4654 66.0016 26.6739C65.6602 26.8823 65.4463 27.1653 65.3599 27.5227Z" fill="black"/>
<path d="M67.0355 34.6019L68.1367 33.3256L67.9307 32.7302L66.5529 33.207L66.2821 32.4246L70.2512 31.0511L70.8006 32.6387C70.9274 33.0054 70.9068 33.3617 70.7387 33.7077C70.5706 34.0537 70.3052 34.2895 69.9423 34.415C69.6966 34.5001 69.4437 34.5093 69.1836 34.4427C68.9273 34.3748 68.7063 34.2438 68.5207 34.0499L67.3279 35.4467L67.0355 34.6019ZM69.7905 32.0867L68.6168 32.4928L68.8954 33.298C68.9464 33.4454 69.0469 33.5524 69.197 33.619C69.3508 33.6843 69.509 33.6888 69.6715 33.6326C69.834 33.5763 69.9537 33.4757 70.0305 33.3306C70.1072 33.1855 70.1201 33.0392 70.0691 32.8918L69.7905 32.0867Z" fill="black"/>
<path d="M68.39 43.5743C67.952 43.1689 67.7199 42.6625 67.6935 42.055C67.6672 41.4476 67.8547 40.923 68.2559 40.4812C68.6614 40.0432 69.1698 39.811 69.7812 39.7845C70.3926 39.758 70.9172 39.9455 71.355 40.3469C71.797 40.7522 72.0311 41.2585 72.0574 41.8659C72.0838 42.4734 71.8943 42.9981 71.489 43.44C71.0878 43.8818 70.5815 44.1159 69.97 44.1424C69.3586 44.1689 68.8319 43.9795 68.39 43.5743ZM68.8446 41.0382C68.6001 41.3091 68.4862 41.6363 68.5028 42.02C68.5194 42.4036 68.6612 42.7198 68.9282 42.9684C69.1992 43.2169 69.5346 43.3325 69.9342 43.3152C70.3338 43.2979 70.6579 43.1537 70.9064 42.8827C71.1549 42.6117 71.2708 42.2844 71.2542 41.9007C71.2376 41.5171 71.0938 41.201 70.8227 40.9525C70.5517 40.704 70.2164 40.5884 69.8168 40.6058C69.4172 40.6231 69.0931 40.7672 68.8446 41.0382Z" fill="black"/>
<path d="M66.9313 47.306C67.0111 46.8448 67.2067 46.489 67.518 46.2384C67.8293 45.9878 68.2037 45.9004 68.6412 45.9762L71.4258 46.4582L71.2855 47.2682L68.566 46.7974C68.3492 46.7598 68.1672 46.7913 68.0199 46.8916C67.872 46.9959 67.7751 47.1801 67.7294 47.4442C67.6837 47.7082 67.7133 47.9123 67.8183 48.0563C67.9226 48.2042 68.0831 48.297 68.2999 48.3345L71.0194 48.8053L70.8782 49.6212L68.0936 49.1391C67.6561 49.0634 67.3329 48.8552 67.1239 48.5146C66.915 48.1739 66.8508 47.7711 66.9313 47.306Z" fill="black"/>
<path d="M68.9987 54.4404L68.255 54.168L68.645 53.1032L65.4448 51.9312L65.7296 51.1537L68.9297 52.3257L69.3176 51.2665L70.0613 51.5389L68.9987 54.4404Z" fill="black"/>
<path d="M63.3974 55.5862C63.6969 55.0296 64.1291 54.6694 64.6942 54.5056C65.2593 54.3418 65.813 54.4058 66.3555 54.6976C66.9015 54.9914 67.2601 55.4182 67.4312 55.9781C67.6059 56.5399 67.5435 57.0991 67.2441 57.6557C67.0641 57.9903 66.819 58.2559 66.5088 58.4524C66.2003 58.6544 65.8696 58.7626 65.5166 58.7771L65.4903 57.9522C65.7051 57.9496 65.9038 57.8885 66.0864 57.7687C66.2725 57.6508 66.4223 57.4861 66.5361 57.2748C66.7294 56.9155 66.773 56.5642 66.6669 56.221C66.559 55.8813 66.3254 55.6148 65.9661 55.4215C65.6103 55.2301 65.2609 55.183 64.918 55.2801C64.5731 55.3807 64.3041 55.6107 64.1108 55.97C63.9971 56.1813 63.9405 56.3962 63.9411 56.6145C63.9434 56.8383 64.0018 57.0378 64.1165 57.2131L63.4136 57.6457C63.2312 57.3431 63.1365 57.0083 63.1296 56.6412C63.1262 56.2761 63.2155 55.9244 63.3974 55.5862Z" fill="black"/>
<path d="M59.2462 61.6345C59.2031 61.0392 59.3792 60.5107 59.7747 60.0489C60.1702 59.5872 60.6654 59.3319 61.2602 59.283C61.8554 59.2399 62.3855 59.4173 62.8503 59.8154C63.3151 60.2135 63.5704 60.7087 63.6162 61.3009C63.6624 61.8987 63.4877 62.4286 63.0922 62.8903C62.6967 63.3521 62.2001 63.6061 61.6022 63.6523C61.0074 63.7011 60.4776 63.5265 60.0128 63.1284C59.548 62.7303 59.2925 62.2323 59.2462 61.6345ZM61.31 60.092C60.9464 60.1229 60.6397 60.2842 60.3899 60.5758C60.1401 60.8675 60.0279 61.1953 60.0532 61.5593C60.0815 61.9259 60.2476 62.2393 60.5514 62.4995C60.8552 62.7597 61.1904 62.8756 61.557 62.8473C61.9236 62.819 62.2318 62.659 62.4816 62.3673C62.7314 62.0757 62.8421 61.7466 62.8138 61.38C62.7854 61.0133 62.6194 60.6999 62.3156 60.4397C62.0118 60.1795 61.6766 60.0636 61.31 60.092Z" fill="black"/>
<path d="M56.2082 68.3128L53.6698 64.9666L54.3247 64.4698L55.971 66.64L55.7342 64.3721L55.8107 64.3141L57.9273 65.1485L56.2846 62.9831L56.9443 62.4827L59.4826 65.8288L58.8039 66.3437L56.6428 65.4903L56.887 67.7978L56.2082 68.3128Z" fill="black"/>
<path d="M51.513 66.4908L49.9043 67.2291L49.574 66.5093L51.9352 65.4256L53.6871 69.2427L51.3532 70.3139L51.0228 69.5941L52.6042 68.8683L52.2313 68.0558L50.7862 68.719L50.4609 68.0101L51.9059 67.3469L51.513 66.4908Z" fill="black"/>
</g>
</svg>
