<svg width="42" height="40" viewBox="0 0 42 40" fill="none" xmlns="http://www.w3.org/2000/svg">
<g filter="url(#filter0_dd)">
<path d="M33 12.3C33 11.0855 33 10.4782 32.745 10.0229C32.5648 9.70103 32.299 9.43527 31.9772 9.25503C31.5218 9.00006 30.9146 9.00006 29.7001 9.00005L16.6363 9C15.4475 9.00002 14.8531 9.00004 14.4051 9.2447C14.0686 9.42844 13.792 9.70502 13.6083 10.0415C13.3636 10.4895 13.3636 11.0839 13.3636 12.2728L13.3636 13.4001H33L33 12.3Z" fill="url(#paint0_linear)"/>
<path d="M26.4545 17.8001C27.6595 17.8001 28.6364 18.785 28.6364 20.0001V22.0428L28.856 22.0507C30.8034 22.1209 31.777 22.1559 32.3885 21.5661C33 20.9762 33 20.0019 33 18.0533L33 13.4001H13.3636V17.8001H26.4545Z" fill="url(#paint1_linear)"/>
<path d="M28.6364 20.0001C28.6364 18.785 27.6595 17.8001 26.4545 17.8001H13.3636H11.1818C9.97683 17.8001 9 18.785 9 20.0001V22.0428H28.6364V20.0001Z" fill="url(#paint2_linear)"/>
<path d="M9 31H26.4545C27.6595 31 28.6364 30.015 28.6364 28.8V22.0428H9V31Z" fill="url(#paint3_linear)"/>
<path d="M9 31H26.4545C27.6595 31 28.6364 30.015 28.6364 28.8V22.0428M9 31V20.0001M9 31V22.0428M9 20.0001C9 18.785 9.97683 17.8001 11.1818 17.8001H13.3636M9 20.0001V22.0428M13.3636 17.8001H26.4545C27.6595 17.8001 28.6364 18.785 28.6364 20.0001V22.0428M13.3636 17.8001V13.4001M28.6364 22.0428L28.856 22.0507C30.8034 22.1209 31.777 22.1559 32.3885 21.5661C33 20.9762 33 20.0019 33 18.0533L33 13.4001M28.6364 22.0428H9M13.3636 13.4001H33M13.3636 13.4001L13.3636 12.2728C13.3636 11.0839 13.3636 10.4895 13.6083 10.0415C13.792 9.70502 14.0686 9.42844 14.4051 9.2447C14.8531 9.00004 15.4475 9.00002 16.6363 9V9L29.7001 9.00005C30.9146 9.00006 31.5218 9.00006 31.9772 9.25503C32.299 9.43527 32.5648 9.70103 32.745 10.0229C33 10.4782 33 11.0855 33 12.3V12.3L33 13.4001" stroke="url(#paint4_linear)"/>
</g>
<defs>
<filter id="filter0_dd" x="0.5" y="1.5" width="41" height="38" filterUnits="userSpaceOnUse" color-interpolation-filters="sRGB">
<feFlood flood-opacity="0" result="BackgroundImageFix"/>
<feColorMatrix in="SourceAlpha" type="matrix" values="0 0 0 0 0 0 0 0 0 0 0 0 0 0 0 0 0 0 127 0"/>
<feOffset dx="1" dy="1"/>
<feGaussianBlur stdDeviation="3.5"/>
<feColorMatrix type="matrix" values="0 0 0 0 0.0705882 0 0 0 0 0.239843 0 0 0 0 0.396078 0 0 0 0.16 0"/>
<feBlend mode="normal" in2="BackgroundImageFix" result="effect1_dropShadow"/>
<feColorMatrix in="SourceAlpha" type="matrix" values="0 0 0 0 0 0 0 0 0 0 0 0 0 0 0 0 0 0 127 0"/>
<feOffset dx="-2" dy="-1"/>
<feGaussianBlur stdDeviation="3"/>
<feColorMatrix type="matrix" values="0 0 0 0 1 0 0 0 0 1 0 0 0 0 1 0 0 0 0.1 0"/>
<feBlend mode="normal" in2="effect1_dropShadow" result="effect2_dropShadow"/>
<feBlend mode="normal" in="SourceGraphic" in2="effect2_dropShadow" result="shape"/>
</filter>
<linearGradient id="paint0_linear" x1="43.9823" y1="35.125" x2="14.5733" y2="14.5382" gradientUnits="userSpaceOnUse">
<stop offset="0.156924" stop-color="#DEE9F3"/>
<stop offset="1" stop-color="#5F83AD"/>
</linearGradient>
<linearGradient id="paint1_linear" x1="43.9823" y1="35.125" x2="14.5733" y2="14.5382" gradientUnits="userSpaceOnUse">
<stop offset="0.156924" stop-color="#DEE9F3"/>
<stop offset="1" stop-color="#5F83AD"/>
</linearGradient>
<linearGradient id="paint2_linear" x1="43.9823" y1="35.125" x2="14.5733" y2="14.5382" gradientUnits="userSpaceOnUse">
<stop offset="0.156924" stop-color="#DEE9F3"/>
<stop offset="1" stop-color="#5F83AD"/>
</linearGradient>
<linearGradient id="paint3_linear" x1="43.9823" y1="35.125" x2="14.5733" y2="14.5382" gradientUnits="userSpaceOnUse">
<stop offset="0.156924" stop-color="#DEE9F3"/>
<stop offset="1" stop-color="#5F83AD"/>
</linearGradient>
<linearGradient id="paint4_linear" x1="10.8412" y1="14.0417" x2="32.3705" y2="29.4951" gradientUnits="userSpaceOnUse">
<stop offset="0.130987" stop-color="white"/>
<stop offset="1" stop-color="#5B80A3"/>
</linearGradient>
</defs>
</svg>
