<svg width="62" height="73" viewBox="0 0 62 73" fill="none" xmlns="http://www.w3.org/2000/svg">
<g opacity="0.7" filter="url(#filter0_dddi)">
<mask id="path-1-outside-1" maskUnits="userSpaceOnUse" x="29.5002" y="26.6006" width="13" height="27" fill="black">
<rect fill="white" x="29.5002" y="26.6006" width="13" height="27"/>
<path fill-rule="evenodd" clip-rule="evenodd" d="M36.2502 28.6006C39.4637 31.3517 41.5002 35.438 41.5002 40C41.5002 44.5619 39.4637 48.6482 36.2502 51.3993C33.0368 48.6482 31.0002 44.5619 31.0002 40C31.0002 35.438 33.0368 31.3517 36.2502 28.6006Z"/>
</mask>
<path fill-rule="evenodd" clip-rule="evenodd" d="M36.2502 28.6006C39.4637 31.3517 41.5002 35.438 41.5002 40C41.5002 44.5619 39.4637 48.6482 36.2502 51.3993C33.0368 48.6482 31.0002 44.5619 31.0002 40C31.0002 35.438 33.0368 31.3517 36.2502 28.6006Z" fill="url(#paint0_linear)"/>
<path d="M36.2502 28.6006L35.5999 27.8409L36.2502 27.2842L36.9006 27.8409L36.2502 28.6006ZM36.2502 51.3993L36.9006 52.159L36.2502 52.7158L35.5999 52.159L36.2502 51.3993ZM36.9006 27.8409C40.3265 30.7739 42.5002 35.1336 42.5002 40H40.5002C40.5002 35.7424 38.6009 31.9295 35.5999 29.3602L36.9006 27.8409ZM42.5002 40C42.5002 44.8663 40.3265 49.226 36.9006 52.159L35.5999 50.6397C38.6009 48.0705 40.5002 44.2575 40.5002 40H42.5002ZM35.5999 52.159C32.174 49.226 30.0002 44.8663 30.0002 40H32.0002C32.0002 44.2575 33.8995 48.0705 36.9006 50.6397L35.5999 52.159ZM30.0002 40C30.0002 35.1336 32.174 30.7739 35.5999 27.8409L36.9006 29.3602C33.8995 31.9295 32.0002 35.7424 32.0002 40H30.0002Z" fill="url(#paint1_radial)" mask="url(#path-1-outside-1)"/>
</g>
<defs>
<filter id="filter0_dddi" x="0.000244141" y="0.28418" width="62" height="71.9316" filterUnits="userSpaceOnUse" color-interpolation-filters="sRGB">
<feFlood flood-opacity="0" result="BackgroundImageFix"/>
<feColorMatrix in="SourceAlpha" type="matrix" values="0 0 0 0 0 0 0 0 0 0 0 0 0 0 0 0 0 0 127 0"/>
<feOffset dx="3" dy="1.5"/>
<feGaussianBlur stdDeviation="5.25"/>
<feColorMatrix type="matrix" values="0 0 0 0 0.0705882 0 0 0 0 0.180392 0 0 0 0 0.396078 0 0 0 0.05 0"/>
<feBlend mode="normal" in2="BackgroundImageFix" result="effect1_dropShadow"/>
<feColorMatrix in="SourceAlpha" type="matrix" values="0 0 0 0 0 0 0 0 0 0 0 0 0 0 0 0 0 0 127 0"/>
<feOffset dx="3" dy="3"/>
<feGaussianBlur stdDeviation="8.25"/>
<feColorMatrix type="matrix" values="0 0 0 0 0.0705882 0 0 0 0 0.180392 0 0 0 0 0.396078 0 0 0 0.2 0"/>
<feBlend mode="normal" in2="effect1_dropShadow" result="effect2_dropShadow"/>
<feColorMatrix in="SourceAlpha" type="matrix" values="0 0 0 0 0 0 0 0 0 0 0 0 0 0 0 0 0 0 127 0"/>
<feOffset dx="-9" dy="-6"/>
<feGaussianBlur stdDeviation="10.5"/>
<feColorMatrix type="matrix" values="0 0 0 0 1 0 0 0 0 1 0 0 0 0 1 0 0 0 1 0"/>
<feBlend mode="normal" in2="effect2_dropShadow" result="effect3_dropShadow"/>
<feBlend mode="normal" in="SourceGraphic" in2="effect3_dropShadow" result="shape"/>
<feColorMatrix in="SourceAlpha" type="matrix" values="0 0 0 0 0 0 0 0 0 0 0 0 0 0 0 0 0 0 127 0" result="hardAlpha"/>
<feOffset dx="-1.5" dy="-1.5"/>
<feGaussianBlur stdDeviation="5.25"/>
<feComposite in2="hardAlpha" operator="arithmetic" k2="-1" k3="1"/>
<feColorMatrix type="matrix" values="0 0 0 0 1 0 0 0 0 1 0 0 0 0 1 0 0 0 0.2 0"/>
<feBlend mode="normal" in2="shape" result="effect4_innerShadow"/>
</filter>
<linearGradient id="paint0_linear" x1="29.7815" y1="12.3158" x2="56.6452" y2="31.9515" gradientUnits="userSpaceOnUse">
<stop offset="0.265158" stop-color="white"/>
<stop offset="1" stop-color="#C6D7EB"/>
</linearGradient>
<radialGradient id="paint1_radial" cx="0" cy="0" r="1" gradientUnits="userSpaceOnUse" gradientTransform="translate(45.0002 38.9999) rotate(180) scale(15)">
<stop stop-color="#6681A0"/>
<stop offset="1" stop-color="white"/>
</radialGradient>
</defs>
</svg>
