<svg width="40" height="40" viewBox="0 0 40 40" fill="none" xmlns="http://www.w3.org/2000/svg">
<g filter="url(#filter0_ii)">
<path d="M28.0926 21.3251C27.8087 21.1084 27.6681 20.7573 27.6919 20.401C27.7007 20.2682 27.7058 20.1345 27.7058 20C27.7058 19.8658 27.7007 19.7324 27.6919 19.5998C27.6682 19.2431 27.8092 18.8916 28.0936 18.675L29.8077 17.37C30.003 17.22 30.0595 16.95 29.931 16.73L27.8754 13.265C27.747 13.05 27.4797 12.96 27.2485 13.05L25.2071 13.8517C24.8851 13.9781 24.5232 13.9252 24.2325 13.7377C23.9891 13.5806 23.7361 13.436 23.4741 13.3056C23.1565 13.1476 22.921 12.8544 22.8699 12.5034L22.5669 10.42C22.5207 10.185 22.31 10 22.053 10H17.9419C17.6849 10 17.4742 10.185 17.4331 10.42L17.1301 12.5034C17.079 12.8544 16.8435 13.1476 16.5256 13.3049C16.2645 13.4342 16.0124 13.5773 15.7697 13.734C15.4773 13.9228 15.1132 13.9774 14.7892 13.8502L12.7515 13.05C12.5203 12.965 12.253 13.05 12.1246 13.265L10.069 16.73C9.94051 16.945 9.99704 17.215 10.1923 17.37L11.9023 18.6749C12.1861 18.8916 12.3267 19.2427 12.303 19.599C12.2941 19.7318 12.289 19.8655 12.289 20C12.289 20.1345 12.2941 20.2682 12.303 20.401C12.3267 20.7573 12.1861 21.1084 11.9023 21.3251L10.1923 22.63C9.99704 22.78 9.94051 23.05 10.069 23.27L12.1246 26.735C12.253 26.95 12.5203 27.04 12.7515 26.95L14.7929 26.1483C15.1149 26.0219 15.4768 26.0748 15.7675 26.2623C16.0109 26.4194 16.2639 26.564 16.5259 26.6944C16.8435 26.8524 17.079 27.1456 17.1301 27.4966L17.4331 29.58C17.4742 29.815 17.6849 30 17.9419 30H22.053C22.31 30 22.5207 29.815 22.5618 29.58L22.8648 27.4966C22.9158 27.1456 23.1513 26.8524 23.4693 26.6951C23.7304 26.5658 23.9825 26.4227 24.2251 26.266C24.5175 26.0772 24.8817 26.0226 25.2056 26.1498L27.2433 26.95C27.4746 27.035 27.7418 26.95 27.8703 26.735L29.9259 23.27C30.0543 23.055 29.9978 22.785 29.8025 22.63L28.0926 21.3251ZM19.9974 23.5C18.0087 23.5 16.4002 21.935 16.4002 20C16.4002 18.065 18.0087 16.5 19.9974 16.5C21.9862 16.5 23.5947 18.065 23.5947 20C23.5947 21.935 21.9862 23.5 19.9974 23.5Z" stroke="url(#paint0_linear)" stroke-opacity="0.5" stroke-width="2" stroke-linecap="round" stroke-linejoin="round"/>
</g>
<defs>
<filter id="filter0_ii" x="8.49927" y="8.5" width="23.0008" height="23" filterUnits="userSpaceOnUse" color-interpolation-filters="sRGB">
<feFlood flood-opacity="0" result="BackgroundImageFix"/>
<feBlend mode="normal" in="SourceGraphic" in2="BackgroundImageFix" result="shape"/>
<feColorMatrix in="SourceAlpha" type="matrix" values="0 0 0 0 0 0 0 0 0 0 0 0 0 0 0 0 0 0 127 0" result="hardAlpha"/>
<feOffset dx="-0.5" dy="-0.5"/>
<feGaussianBlur stdDeviation="0.25"/>
<feComposite in2="hardAlpha" operator="arithmetic" k2="-1" k3="1"/>
<feColorMatrix type="matrix" values="0 0 0 0 1 0 0 0 0 1 0 0 0 0 1 0 0 0 0.4 0"/>
<feBlend mode="normal" in2="shape" result="effect1_innerShadow"/>
<feColorMatrix in="SourceAlpha" type="matrix" values="0 0 0 0 0 0 0 0 0 0 0 0 0 0 0 0 0 0 127 0" result="hardAlpha"/>
<feOffset dx="0.5" dy="0.5"/>
<feGaussianBlur stdDeviation="0.25"/>
<feComposite in2="hardAlpha" operator="arithmetic" k2="-1" k3="1"/>
<feColorMatrix type="matrix" values="0 0 0 0 0.127604 0 0 0 0 0.267969 0 0 0 0 0.408333 0 0 0 0.4 0"/>
<feBlend mode="normal" in2="effect1_innerShadow" result="effect2_innerShadow"/>
</filter>
<linearGradient id="paint0_linear" x1="28.5" y1="30" x2="9.60537" y2="6.38242" gradientUnits="userSpaceOnUse">
<stop stop-color="#48647D"/>
<stop offset="0.234375" stop-color="#6B8299"/>
<stop offset="0.442708" stop-color="#DAE2EB"/>
<stop offset="0.682292" stop-color="#8CA2B7"/>
<stop offset="1" stop-color="#EDF2F7"/>
</linearGradient>
</defs>
</svg>
