<svg xmlns="http://www.w3.org/2000/svg" width="17" height="16" viewBox="0 0 17 16"><g><g><path fill="#fff" d="M16.492.697L13.581 12.6a.162.162 0 0 1-.204.115l-5.824-1.76a.162.162 0 0 1-.108-.106.16.16 0 0 1 .032-.15l5.797-6.803-7.547 6.397a.16.16 0 0 1-.157.034L.608 8.762a.16.16 0 1 1-.024-.296L16.262.516a.163.163 0 0 1 .174.017c.049.04.071.103.056.164zm-7.13 12.095a.156.156 0 0 1-.016.14l-1.609 2.522a.163.163 0 0 1-.181.068.16.16 0 0 1-.117-.154v-3.012c0-.05.024-.099.066-.129a.158.158 0 0 1 .143-.024l1.61.491c.047.015.086.05.104.098z"/></g></g></svg>